<svg width="61" height="35" viewBox="0 0 61 35" fill="none" xmlns="http://www.w3.org/2000/svg">
<rect x="0.945312" y="0.18457" width="59.4884" height="34.8158" rx="4.35334" fill="black"/>
<circle cx="13.8344" cy="17.1801" r="5.4828" fill="white"/>
<path d="M16.4204 14.109C16.7187 14.109 17.0057 14.159 17.2813 14.2591C17.5589 14.3592 17.8062 14.5187 18.0233 14.7377C18.2423 14.9567 18.4151 15.2475 18.5416 15.61C18.67 15.9706 18.7351 16.4133 18.737 16.9382C18.737 17.431 18.6813 17.8709 18.5699 18.2579C18.4604 18.6431 18.3027 18.9706 18.0969 19.2406C17.8911 19.5106 17.6429 19.7164 17.3521 19.858C17.0614 19.9977 16.7366 20.0676 16.3779 20.0676C15.9909 20.0676 15.6491 19.993 15.3527 19.8438C15.0563 19.6928 14.8175 19.488 14.6362 19.2293C14.4568 18.9688 14.3483 18.6761 14.3105 18.3514H15.5198C15.567 18.5628 15.6661 18.7271 15.8172 18.8441C15.9682 18.9593 16.1551 19.0169 16.3779 19.0169C16.7555 19.0169 17.0425 18.8526 17.2388 18.5241C17.4352 18.1937 17.5343 17.7415 17.5362 17.1676H17.4966C17.4097 17.3375 17.2926 17.4838 17.1454 17.6065C16.9981 17.7274 16.8291 17.8208 16.6384 17.8869C16.4496 17.953 16.2486 17.986 16.0352 17.986C15.6935 17.986 15.3886 17.9058 15.1205 17.7453C14.8524 17.5848 14.6409 17.3639 14.4861 17.0826C14.3313 16.8013 14.2539 16.4803 14.2539 16.1197C14.252 15.7308 14.3417 15.3844 14.5229 15.0804C14.7042 14.7764 14.9572 14.5385 15.2819 14.3667C15.6085 14.193 15.988 14.1071 16.4204 14.109ZM16.4289 15.0719C16.2382 15.0719 16.0683 15.1172 15.9191 15.2078C15.7718 15.2984 15.6548 15.4202 15.5679 15.5732C15.483 15.7261 15.4414 15.8969 15.4433 16.0857C15.4433 16.2764 15.4849 16.4482 15.5679 16.6012C15.6529 16.7522 15.7681 16.8731 15.9135 16.9637C16.0607 17.0524 16.2287 17.0968 16.4176 17.0968C16.5592 17.0968 16.6904 17.0704 16.8112 17.0175C16.932 16.9646 17.0368 16.8919 17.1256 16.7994C17.2162 16.705 17.287 16.5965 17.338 16.4737C17.3889 16.351 17.4144 16.2207 17.4144 16.0829C17.4125 15.8998 17.3691 15.7317 17.2842 15.5788C17.1992 15.4259 17.0821 15.3032 16.933 15.2107C16.7838 15.1181 16.6158 15.0719 16.4289 15.0719Z" fill="black"/>
<path d="M22.4874 17.4734V19.9883H21.281V15.6383H22.4308V16.4058H22.4818C22.5781 16.1528 22.7395 15.9526 22.9661 15.8054C23.1926 15.6562 23.4673 15.5816 23.7902 15.5816C24.0923 15.5816 24.3556 15.6477 24.5803 15.7799C24.805 15.9121 24.9796 16.1009 25.1042 16.3463C25.2288 16.5899 25.2911 16.8806 25.2911 17.2186V19.9883H24.0847V17.4338C24.0866 17.1676 24.0186 16.9599 23.8808 16.8107C23.743 16.6597 23.5532 16.5842 23.3116 16.5842C23.1492 16.5842 23.0057 16.6191 22.8811 16.689C22.7584 16.7588 22.6621 16.8608 22.5922 16.9948C22.5243 17.127 22.4893 17.2865 22.4874 17.4734ZM26.7497 21.6195C26.5968 21.6195 26.4533 21.6073 26.3192 21.5827C26.1871 21.5601 26.0776 21.5308 25.9907 21.4949L26.2626 20.5943C26.4042 20.6378 26.5317 20.6614 26.6449 20.6651C26.7601 20.6689 26.8592 20.6425 26.9423 20.5858C27.0273 20.5292 27.0962 20.4329 27.149 20.297L27.2198 20.1129L25.6594 15.6383H26.9281L27.8287 18.8328H27.874L28.7831 15.6383H30.0604L28.3696 20.4584C28.2885 20.6925 28.178 20.8964 28.0383 21.0701C27.9005 21.2457 27.7258 21.3807 27.5144 21.4751C27.3029 21.5714 27.048 21.6195 26.7497 21.6195ZM31.8028 17.4734V19.9883H30.5964V15.6383H31.7462V16.4058H31.7972C31.8935 16.1528 32.0549 15.9526 32.2814 15.8054C32.508 15.6562 32.7827 15.5816 33.1056 15.5816C33.4076 15.5816 33.671 15.6477 33.8957 15.7799C34.1204 15.9121 34.295 16.1009 34.4196 16.3463C34.5442 16.5899 34.6065 16.8806 34.6065 17.2186V19.9883H33.4001V17.4338C33.402 17.1676 33.334 16.9599 33.1962 16.8107C33.0584 16.6597 32.8686 16.5842 32.627 16.5842C32.4646 16.5842 32.3211 16.6191 32.1965 16.689C32.0738 16.7588 31.9775 16.8608 31.9076 16.9948C31.8397 17.127 31.8047 17.2865 31.8028 17.4734ZM37.7898 15.6383V16.5445H35.1702V15.6383H37.7898ZM35.7649 14.5961H36.9714V18.6516C36.9714 18.763 36.9884 18.8498 37.0223 18.9121C37.0563 18.9725 37.1035 19.015 37.1639 19.0396C37.2262 19.0641 37.298 19.0764 37.3792 19.0764C37.4358 19.0764 37.4925 19.0716 37.5491 19.0622C37.6057 19.0509 37.6492 19.0424 37.6794 19.0367L37.8691 19.9345C37.8087 19.9534 37.7237 19.9751 37.6142 19.9996C37.5047 20.026 37.3716 20.0421 37.2149 20.0478C36.9242 20.0591 36.6693 20.0204 36.4503 19.9316C36.2331 19.8429 36.0642 19.7051 35.9433 19.5182C35.8225 19.3313 35.763 19.0952 35.7649 18.8102V14.5961ZM40.2814 19.9883V14.1883H42.5697C43.0096 14.1883 43.3844 14.2723 43.694 14.4403C44.0037 14.6065 44.2397 14.8378 44.402 15.1342C44.5663 15.4287 44.6484 15.7686 44.6484 16.1537C44.6484 16.5389 44.5653 16.8787 44.3992 17.1732C44.2331 17.4678 43.9923 17.6972 43.677 17.8614C43.3636 18.0257 42.9841 18.1078 42.5386 18.1078H41.0801V17.1251H42.3403C42.5763 17.1251 42.7708 17.0845 42.9237 17.0033C43.0785 16.9203 43.1937 16.806 43.2692 16.6607C43.3466 16.5134 43.3853 16.3444 43.3853 16.1537C43.3853 15.9611 43.3466 15.7931 43.2692 15.6496C43.1937 15.5042 43.0785 15.3919 42.9237 15.3126C42.7689 15.2314 42.5725 15.1908 42.3347 15.1908H41.5077V19.9883H40.2814ZM46.4645 20.0704C46.187 20.0704 45.9397 20.0223 45.7225 19.926C45.5054 19.8278 45.3336 19.6834 45.2071 19.4927C45.0825 19.3001 45.0202 19.0603 45.0202 18.7733C45.0202 18.5317 45.0646 18.3287 45.1533 18.1645C45.242 18.0002 45.3629 17.868 45.5158 17.768C45.6687 17.6679 45.8424 17.5924 46.0369 17.5414C46.2333 17.4904 46.439 17.4546 46.6543 17.4338C46.9073 17.4074 47.1112 17.3828 47.266 17.3602C47.4208 17.3356 47.5332 17.2997 47.603 17.2525C47.6729 17.2053 47.7078 17.1355 47.7078 17.043V17.026C47.7078 16.8466 47.6512 16.7079 47.5379 16.6097C47.4265 16.5115 47.2679 16.4624 47.0621 16.4624C46.845 16.4624 46.6722 16.5106 46.5438 16.6068C46.4154 16.7012 46.3305 16.8202 46.2889 16.9637L45.1731 16.8731C45.2298 16.6087 45.3412 16.3803 45.5073 16.1877C45.6735 15.9932 45.8877 15.8441 46.1502 15.7402C46.4145 15.6345 46.7204 15.5816 47.0678 15.5816C47.3094 15.5816 47.5407 15.61 47.7616 15.6666C47.9844 15.7233 48.1817 15.811 48.3535 15.93C48.5272 16.0489 48.6641 16.2019 48.7641 16.3888C48.8642 16.5738 48.9142 16.7956 48.9142 17.0543V19.9883H47.7701V19.3851H47.7361C47.6663 19.521 47.5728 19.6409 47.4557 19.7447C47.3387 19.8467 47.198 19.9269 47.0338 19.9854C46.8695 20.0421 46.6798 20.0704 46.4645 20.0704ZM46.81 19.2378C46.9875 19.2378 47.1442 19.2029 47.2802 19.133C47.4161 19.0613 47.5228 18.965 47.6002 18.8441C47.6776 18.7233 47.7163 18.5864 47.7163 18.4335V17.9719C47.6785 17.9964 47.6266 18.0191 47.5605 18.0398C47.4963 18.0587 47.4236 18.0767 47.3425 18.0937C47.2613 18.1088 47.1801 18.1229 47.0989 18.1361C47.0177 18.1475 46.9441 18.1578 46.878 18.1673C46.7364 18.1881 46.6127 18.2211 46.507 18.2664C46.4013 18.3117 46.3192 18.3731 46.2606 18.4505C46.2021 18.526 46.1728 18.6204 46.1728 18.7337C46.1728 18.898 46.2323 19.0235 46.3513 19.1104C46.4721 19.1953 46.625 19.2378 46.81 19.2378ZM50.3579 21.6195C50.205 21.6195 50.0615 21.6073 49.9275 21.5827C49.7953 21.5601 49.6858 21.5308 49.599 21.4949L49.8708 20.5943C50.0124 20.6378 50.1399 20.6614 50.2532 20.6651C50.3683 20.6689 50.4674 20.6425 50.5505 20.5858C50.6355 20.5292 50.7044 20.4329 50.7573 20.297L50.8281 20.1129L49.2676 15.6383H50.5364L51.4369 18.8328H51.4822L52.3913 15.6383H53.6686L51.9779 20.4584C51.8967 20.6925 51.7862 20.8964 51.6465 21.0701C51.5087 21.2457 51.334 21.3807 51.1226 21.4751C50.9111 21.5714 50.6562 21.6195 50.3579 21.6195Z" fill="white"/>
</svg>
