<svg width="248" height="54" viewBox="0 0 248 54" fill="none" xmlns="http://www.w3.org/2000/svg">
<path d="M226.957 50.1829V20.5153H232.857V24.1395H233.124C233.386 23.5589 233.765 22.9689 234.262 22.3695C234.767 21.7608 235.423 21.2551 236.228 20.8525C237.043 20.4404 238.054 20.2344 239.262 20.2344C240.836 20.2344 242.287 20.6464 243.617 21.4705C244.947 22.2853 246.01 23.5167 246.806 25.1649C247.602 26.8038 248 28.8593 248 31.3316C248 33.7384 247.611 35.7705 246.834 37.4281C246.066 39.0763 245.017 40.3265 243.687 41.1787C242.367 42.0215 240.887 42.4429 239.248 42.4429C238.087 42.4429 237.099 42.251 236.284 41.867C235.479 41.4831 234.819 41.0008 234.304 40.4202C233.789 39.8302 233.395 39.2355 233.124 38.6362H232.941V50.1829H226.957ZM232.815 31.3035C232.815 32.5865 232.993 33.7056 233.348 34.6608C233.704 35.616 234.219 36.3605 234.894 36.8943C235.568 37.4187 236.387 37.681 237.352 37.681C238.326 37.681 239.15 37.4141 239.824 36.8803C240.498 36.3371 241.009 35.5879 241.355 34.6327C241.711 33.6681 241.889 32.5584 241.889 31.3035C241.889 30.058 241.716 28.9623 241.369 28.0165C241.023 27.0707 240.513 26.3308 239.838 25.7971C239.164 25.2633 238.335 24.9964 237.352 24.9964C236.378 24.9964 235.554 25.2539 234.88 25.769C234.215 26.284 233.704 27.0145 233.348 27.9603C232.993 28.9062 232.815 30.0206 232.815 31.3035Z" fill="black"/>
<path d="M212.85 42.5132C210.668 42.5132 208.781 42.0496 207.189 41.1225C205.606 40.186 204.384 38.8843 203.523 37.2174C202.661 35.5411 202.23 33.5979 202.23 31.3878C202.23 29.159 202.661 27.2111 203.523 25.5442C204.384 23.8679 205.606 22.5662 207.189 21.6391C208.781 20.7026 210.668 20.2344 212.85 20.2344C215.032 20.2344 216.914 20.7026 218.497 21.6391C220.089 22.5662 221.316 23.8679 222.177 25.5442C223.039 27.2111 223.47 29.159 223.47 31.3878C223.47 33.5979 223.039 35.5411 222.177 37.2174C221.316 38.8843 220.089 40.186 218.497 41.1225C216.914 42.0496 215.032 42.5132 212.85 42.5132ZM212.878 37.8776C213.871 37.8776 214.7 37.5967 215.365 37.0348C216.029 36.4635 216.53 35.6863 216.868 34.703C217.214 33.7197 217.387 32.6006 217.387 31.3457C217.387 30.0908 217.214 28.9717 216.868 27.9884C216.53 27.0051 216.029 26.2278 215.365 25.6566C214.7 25.0853 213.871 24.7997 212.878 24.7997C211.876 24.7997 211.033 25.0853 210.35 25.6566C209.675 26.2278 209.165 27.0051 208.819 27.9884C208.481 28.9717 208.313 30.0908 208.313 31.3457C208.313 32.6006 208.481 33.7197 208.819 34.703C209.165 35.6863 209.675 36.4635 210.35 37.0348C211.033 37.5967 211.876 37.8776 212.878 37.8776Z" fill="black"/>
<path d="M184.804 29.618V42.0918H178.82V13.3232H184.636V24.3222H184.889C185.376 23.0486 186.162 22.0512 187.249 21.3301C188.335 20.5997 189.698 20.2345 191.336 20.2345C192.835 20.2345 194.141 20.5622 195.255 21.2178C196.379 21.8639 197.25 22.7957 197.868 24.0131C198.496 25.2212 198.805 26.6681 198.795 28.3537V42.0918H192.811V29.4213C192.821 28.0915 192.484 27.0567 191.8 26.3169C191.126 25.5771 190.18 25.2071 188.962 25.2071C188.148 25.2071 187.427 25.3804 186.799 25.7269C186.181 26.0734 185.694 26.5791 185.338 27.244C184.992 27.8995 184.814 28.6908 184.804 29.618Z" fill="black"/>
<path d="M169.022 21.5968C168.909 20.4637 168.427 19.5834 167.575 18.9559C166.723 18.3285 165.566 18.0148 164.105 18.0148C163.113 18.0148 162.274 18.1552 161.591 18.4362C160.907 18.7078 160.383 19.087 160.018 19.574C159.662 20.061 159.484 20.6135 159.484 21.2316C159.465 21.7466 159.573 22.1961 159.807 22.5801C160.05 22.964 160.383 23.2965 160.804 23.5774C161.226 23.849 161.713 24.0878 162.265 24.2938C162.818 24.4905 163.408 24.6591 164.035 24.7995L166.62 25.4176C167.875 25.6986 169.026 26.0732 170.075 26.5414C171.124 27.0096 172.033 27.5856 172.8 28.2692C173.568 28.9528 174.163 29.7582 174.584 30.6853C175.015 31.6124 175.235 32.6753 175.245 33.874C175.235 35.6346 174.786 37.1611 173.896 38.4534C173.016 39.7364 171.742 40.7337 170.075 41.4454C168.418 42.1478 166.418 42.499 164.077 42.499C161.755 42.499 159.732 42.1431 158.009 41.4314C156.295 40.7197 154.956 39.6661 153.991 38.2708C153.036 36.8661 152.535 35.1289 152.488 33.0593H158.374C158.44 34.0239 158.716 34.8292 159.203 35.4754C159.699 36.1122 160.359 36.5945 161.183 36.9223C162.017 37.2407 162.958 37.3999 164.007 37.3999C165.037 37.3999 165.931 37.25 166.69 36.9503C167.458 36.6507 168.053 36.2339 168.474 35.7001C168.895 35.1664 169.106 34.553 169.106 33.86C169.106 33.2138 168.914 32.6706 168.53 32.2305C168.156 31.7904 167.603 31.4158 166.873 31.1067C166.151 30.7977 165.267 30.5167 164.218 30.2639L161.085 29.4773C158.66 28.8873 156.745 27.9648 155.34 26.71C153.935 25.4551 153.237 23.7647 153.247 21.6389C153.237 19.8971 153.701 18.3753 154.637 17.0736C155.583 15.7719 156.88 14.7558 158.529 14.0254C160.177 13.2949 162.05 12.9297 164.147 12.9297C166.283 12.9297 168.146 13.2949 169.738 14.0254C171.34 14.7558 172.585 15.7719 173.475 17.0736C174.364 18.3753 174.823 19.883 174.851 21.5968H169.022Z" fill="black"/>
<path d="M141.056 20.5155V25.0106H128.062V20.5155H141.056ZM131.012 15.3462H136.996V35.4617C136.996 36.0143 137.081 36.445 137.249 36.7541C137.418 37.0537 137.652 37.2645 137.952 37.3862C138.261 37.5079 138.617 37.5688 139.019 37.5688C139.3 37.5688 139.581 37.5454 139.862 37.4986C140.143 37.4424 140.358 37.4002 140.508 37.3722L141.449 41.8251C141.15 41.9188 140.728 42.0265 140.185 42.1482C139.642 42.2793 138.982 42.3589 138.205 42.387C136.762 42.4432 135.498 42.2512 134.412 41.8111C133.335 41.3709 132.497 40.6873 131.897 39.7602C131.298 38.8331 131.003 37.6625 131.012 36.2484V15.3462Z" fill="black"/>
<path d="M111.361 29.6179V42.0918H105.377V20.5153H111.08V24.3221H111.333C111.811 23.0672 112.611 22.0746 113.735 21.3441C114.859 20.6043 116.221 20.2344 117.823 20.2344C119.321 20.2344 120.628 20.5621 121.742 21.2177C122.856 21.8732 123.723 22.8097 124.341 24.0271C124.959 25.2352 125.268 26.6773 125.268 28.3536V42.0918H119.284V29.4212C119.293 28.1008 118.956 27.0707 118.272 26.3308C117.589 25.5817 116.647 25.2071 115.449 25.2071C114.643 25.2071 113.932 25.3803 113.314 25.7268C112.705 26.0733 112.227 26.579 111.881 27.2439C111.544 27.8994 111.37 28.6908 111.361 29.6179Z" fill="black"/>
<path d="M86.2968 50.1832C85.5383 50.1832 84.8266 50.1224 84.1617 50.0006C83.5061 49.8883 82.963 49.7431 82.5322 49.5652L83.8807 45.0982C84.5831 45.3136 85.2152 45.4306 85.7771 45.4493C86.3483 45.4681 86.84 45.337 87.252 45.056C87.6735 44.7751 88.0153 44.2975 88.2775 43.6232L88.6287 42.7102L80.8887 20.5156H87.1818L91.6488 36.3608H91.8736L96.3827 20.5156H102.718L94.3318 44.4239C93.9291 45.5851 93.3813 46.5965 92.6883 47.4581C92.0047 48.329 91.1384 48.9986 90.0896 49.4668C89.0407 49.9444 87.7765 50.1832 86.2968 50.1832Z" fill="black"/>
<path d="M65.154 29.6179V42.0918H59.1699V20.5153H64.8731V24.3221H65.1259C65.6035 23.0672 66.4042 22.0746 67.528 21.3441C68.6518 20.6043 70.0143 20.2344 71.6157 20.2344C73.1141 20.2344 74.4205 20.5621 75.5349 21.2177C76.6493 21.8732 77.5155 22.8097 78.1336 24.0271C78.7517 25.2352 79.0607 26.6773 79.0607 28.3536V42.0918H73.0766V29.4212C73.086 28.1008 72.7489 27.0707 72.0652 26.3308C71.3816 25.5817 70.4404 25.2071 69.2417 25.2071C68.4364 25.2071 67.7246 25.3803 67.1066 25.7268C66.4979 26.0733 66.0203 26.579 65.6738 27.2439C65.3366 27.8994 65.1634 28.6908 65.154 29.6179Z" fill="black"/>
<circle cx="27" cy="27" r="27" fill="black"/>
<path d="M35.0626 12.9298C36.5423 12.9298 37.9657 13.178 39.333 13.6743C40.7096 14.1707 41.9364 14.962 43.0133 16.0483C44.0996 17.1346 44.9565 18.5768 45.584 20.3748C46.2208 22.1635 46.5439 24.3596 46.5532 26.963C46.5532 29.4072 46.277 31.5892 45.7244 33.5089C45.1813 35.4194 44.3993 37.0441 43.3786 38.3833C42.3578 39.7225 41.1263 40.7432 39.6842 41.4456C38.242 42.1386 36.6312 42.4851 34.8519 42.4851C32.9321 42.4851 31.2371 42.1152 29.7669 41.3754C28.2966 40.6262 27.1119 39.6101 26.2129 38.3271C25.3233 37.0348 24.7848 35.5832 24.5975 33.9725H30.5956C30.8298 35.0214 31.3214 35.8361 32.0706 36.4167C32.8198 36.988 33.7469 37.2736 34.8519 37.2736C36.7249 37.2736 38.1483 36.4588 39.1223 34.8294C40.0962 33.1905 40.5879 30.9477 40.5972 28.1008H40.4006C39.9698 28.9436 39.3892 29.6694 38.6587 30.2781C37.9283 30.8774 37.0901 31.341 36.1443 31.6688C35.2078 31.9965 34.2104 32.1604 33.1522 32.1604C31.4572 32.1604 29.9448 31.7624 28.615 30.9664C27.2852 30.1704 26.2363 29.0747 25.4684 27.6794C24.7005 26.284 24.3166 24.692 24.3166 22.9033C24.3072 20.9742 24.752 19.2557 25.651 17.748C26.5501 16.2403 27.8049 15.0603 29.4157 14.2081C31.0358 13.3466 32.9181 12.9205 35.0626 12.9298ZM35.1048 17.7059C34.1589 17.7059 33.3161 17.9306 32.5763 18.3801C31.8458 18.8297 31.2652 19.4337 30.8344 20.1922C30.413 20.9508 30.207 21.7983 30.2164 22.7348C30.2164 23.6806 30.4224 24.5328 30.8344 25.2913C31.2559 26.0405 31.8271 26.6399 32.5482 27.0894C33.2786 27.5295 34.1121 27.7496 35.0486 27.7496C35.7509 27.7496 36.4018 27.6185 37.0011 27.3563C37.6005 27.0941 38.1202 26.7335 38.5604 26.2746C39.0099 25.8064 39.3611 25.2679 39.6139 24.6592C39.8668 24.0505 39.9932 23.4043 39.9932 22.7207C39.9838 21.8123 39.7684 20.9789 39.347 20.2203C38.9256 19.4618 38.345 18.8531 37.6052 18.3942C36.8654 17.9353 36.0319 17.7059 35.1048 17.7059Z" fill="white"/>
</svg>
