<svg width="28" height="36" viewBox="0 0 28 36" fill="none" xmlns="http://www.w3.org/2000/svg">
<path d="M23.1852 18.8558C23.1705 15.9323 24.3935 13.7256 26.8689 12.1005C25.4839 9.95766 23.3915 8.77867 20.6288 8.54765C18.0133 8.3246 15.1548 10.1966 14.1086 10.1966C13.0035 10.1966 10.4691 8.62731 8.47989 8.62731C4.36888 8.69901 0 12.1722 0 19.2382C0 21.3253 0.353636 23.4815 1.06091 25.7067C2.00394 28.6303 5.40768 35.7998 8.95877 35.6803C10.8154 35.6325 12.1268 34.2543 14.5433 34.2543C16.8861 34.2543 18.1017 35.6803 20.172 35.6803C23.7525 35.6245 26.8321 29.1082 27.7309 26.1767C22.9274 23.7311 23.1852 19.0072 23.1852 18.8558ZM19.0153 5.77544C21.0266 3.19442 20.8424 0.844409 20.7835 0C19.0079 0.111526 16.9524 1.30644 15.781 2.78018C14.4917 4.35747 13.7329 6.30917 13.8949 8.50782C15.8178 8.66714 17.5713 7.59968 19.0153 5.77544Z" fill="white"/>
</svg>
