<svg width="31" height="36" viewBox="0 0 31 36" fill="none" xmlns="http://www.w3.org/2000/svg">
<path d="M22.7819 23.3367C26.6984 21.0114 29.6675 19.2396 29.9235 19.102C30.7422 18.6311 31.5876 17.3852 29.9235 16.4174C29.3862 16.1131 26.4934 14.3964 22.7819 12.1826L17.6367 17.801L22.7819 23.3367Z" fill="#FFD900"/>
<path d="M17.6367 17.8013L1.25391 35.6544C1.63842 35.7095 2.0726 35.5993 2.58444 35.2951C3.65905 34.6591 15.0507 27.9325 22.7818 23.3384L17.6367 17.8013Z" fill="#F43249"/>
<path d="M17.6367 17.8011L22.7819 12.2103C22.7819 12.2103 3.73679 0.972187 2.58451 0.308613C2.15034 0.0305182 1.66396 -0.0520842 1.22852 0.0305183L17.6367 17.8011Z" fill="#00EE76"/>
<path d="M17.6369 17.8013L1.22867 0.0307617C0.562771 0.197343 0 0.833383 0 2.13437V33.5509C0 34.7417 0.435447 35.5994 1.25414 35.682L17.6369 17.8013Z" fill="#00D3FF"/>
</svg>
