<svg width="63" height="47" viewBox="0 0 63 47" fill="none" xmlns="http://www.w3.org/2000/svg">
<g filter="url(#filter0_d_1473_916)">
<rect x="6.55016" y="6.54723" width="50.0477" height="34.0905" rx="3.98931" fill="white" stroke="#D9D9D9" stroke-width="0.725329"/>
<path fill-rule="evenodd" clip-rule="evenodd" d="M31.9371 31.0741C30.2086 32.5658 27.9663 33.4663 25.5161 33.4663C20.0491 33.4663 15.6172 28.983 15.6172 23.4525C15.6172 17.922 20.0491 13.4386 25.5161 13.4386C27.9663 13.4386 30.2086 14.3391 31.9371 15.8308C33.6657 14.3391 35.908 13.4386 38.3582 13.4386C43.8252 13.4386 48.2571 17.922 48.2571 23.4525C48.2571 28.983 43.8252 33.4663 38.3582 33.4663C35.908 33.4663 33.6657 32.5658 31.9371 31.0741Z" fill="#ED0006"/>
<path fill-rule="evenodd" clip-rule="evenodd" d="M31.9375 31.0741C34.0659 29.2374 35.4155 26.5044 35.4155 23.4525C35.4155 20.4006 34.0659 17.6676 31.9375 15.8308C33.6661 14.3391 35.9083 13.4386 38.3585 13.4386C43.8255 13.4386 48.2575 17.922 48.2575 23.4525C48.2575 28.983 43.8255 33.4663 38.3585 33.4663C35.9083 33.4663 33.6661 32.5658 31.9375 31.0741Z" fill="#F9A000"/>
<path fill-rule="evenodd" clip-rule="evenodd" d="M31.9389 31.0736C34.0673 29.2369 35.4168 26.5039 35.4168 23.452C35.4168 20.4001 34.0673 17.6671 31.9389 15.8303C29.8105 17.6671 28.4609 20.4001 28.4609 23.452C28.4609 26.5039 29.8105 29.2369 31.9389 31.0736Z" fill="#FF5E00"/>
</g>
<defs>
<filter id="filter0_d_1473_916" x="0.704699" y="0.701769" width="61.739" height="45.7814" filterUnits="userSpaceOnUse" color-interpolation-filters="sRGB">
<feFlood flood-opacity="0" result="BackgroundImageFix"/>
<feColorMatrix in="SourceAlpha" type="matrix" values="0 0 0 0 0 0 0 0 0 0 0 0 0 0 0 0 0 0 127 0" result="hardAlpha"/>
<feOffset/>
<feGaussianBlur stdDeviation="2.7414"/>
<feComposite in2="hardAlpha" operator="out"/>
<feColorMatrix type="matrix" values="0 0 0 0 0 0 0 0 0 0 0 0 0 0 0 0 0 0 0.07 0"/>
<feBlend mode="normal" in2="BackgroundImageFix" result="effect1_dropShadow_1473_916"/>
<feBlend mode="normal" in="SourceGraphic" in2="effect1_dropShadow_1473_916" result="shape"/>
</filter>
</defs>
</svg>
