<svg width="60" height="35" viewBox="0 0 60 35" fill="none" xmlns="http://www.w3.org/2000/svg">
<path d="M56.3469 0.183594H3.20396C1.45172 0.183594 0.03125 1.50738 0.03125 3.14035V32.0426C0.03125 33.6756 1.45172 34.9994 3.20396 34.9994H56.3469C58.0992 34.9994 59.5196 33.6756 59.5196 32.0426V3.14035C59.5196 1.50738 58.0992 0.183594 56.3469 0.183594Z" fill="#00425F"/>
<path d="M12.4276 24.6321C17.4768 24.6321 21.5701 20.8175 21.5701 16.1119C21.5701 11.4064 17.4768 7.5918 12.4276 7.5918C7.37837 7.5918 3.28516 11.4064 3.28516 16.1119C3.28516 20.8175 7.37837 24.6321 12.4276 24.6321Z" fill="#EE312A"/>
<path d="M12.4215 19.7638C10.3767 15.4439 8.8772 11.4086 8.8772 11.4086H5.74219C5.74219 11.4086 7.65033 16.5882 11.1946 23.0656H13.6484C17.1927 16.5882 19.1008 11.4086 19.1008 11.4086H15.9658C15.9658 11.4086 14.4663 15.4439 12.4215 19.7638Z" fill="white"/>
<path d="M56.1881 19.2268H50.0545C50.0545 19.2268 50.1908 21.1325 52.9168 21.1325C54.2798 21.1325 55.6429 20.7511 55.6429 20.7511L55.9156 22.7835C55.9156 22.7835 54.5525 23.2916 52.6442 23.2916C49.9183 23.2916 47.4648 22.0213 47.4648 18.4647C47.4648 15.6702 49.373 13.8918 52.099 13.8918C56.1881 13.8918 56.4607 17.7025 56.1881 19.2268ZM51.9628 15.6702C50.1908 15.6702 50.0545 17.4485 50.0545 17.4485H53.8709C53.8709 17.4485 53.7347 15.6702 51.9628 15.6702Z" fill="white"/>
<path d="M35.1126 16.2075L35.5215 14.1751C35.5215 14.1751 32.3637 13.2821 29.7969 14.9373V23.0666H32.523L32.5228 16.4616C33.6132 15.6994 35.1126 16.2075 35.1126 16.2075Z" fill="white"/>
<path d="M27.6609 19.2268H21.5273C21.5273 19.2268 21.6636 21.1325 24.3896 21.1325C25.7526 21.1325 27.1156 20.7511 27.1156 20.7511L27.3882 22.7835C27.3882 22.7835 26.0252 23.2916 24.117 23.2916C21.3909 23.2916 18.9375 22.0213 18.9375 18.4647C18.9375 15.6702 20.8458 13.8918 23.5718 13.8918C27.6609 13.8918 27.9334 17.7025 27.6609 19.2268ZM23.4354 15.6702C21.6636 15.6702 21.5273 17.4485 21.5273 17.4485H25.3437C25.3437 17.4485 25.2074 15.6702 23.4354 15.6702Z" fill="white"/>
<path d="M41.7313 20.0194C40.8839 18.0989 40.2003 16.1191 39.6868 14.0984L36.9609 14.0987C36.9609 14.0987 38.3239 19.0029 40.6412 23.0665H42.8214C45.1387 19.0029 46.5016 14.0996 46.5016 14.0996H43.7758C43.2622 16.1199 42.5785 18.0992 41.7313 20.0194Z" fill="white"/>
</svg>
