<svg width="63" height="47" viewBox="0 0 63 47" fill="none" xmlns="http://www.w3.org/2000/svg">
<g filter="url(#filter0_d_1473_917)">
<rect x="6.78454" y="6.54723" width="50.0477" height="34.0905" rx="3.98931" fill="white" stroke="#D9D9D9" stroke-width="0.725329"/>
<path fill-rule="evenodd" clip-rule="evenodd" d="M21.8349 29.7697H18.759L16.4525 20.9702C16.343 20.5654 16.1106 20.2075 15.7686 20.0389C14.9153 19.615 13.975 19.2777 12.9492 19.1076V18.7688H17.9042C18.588 18.7688 19.1009 19.2777 19.1864 19.8687L20.3832 26.2161L23.4575 18.7688H26.4479L21.8349 29.7697ZM28.1564 29.7697H25.2515L27.6435 18.7688H30.5484L28.1564 29.7697ZM34.3081 21.8164C34.3935 21.2239 34.9064 20.8851 35.5048 20.8851C36.4451 20.8001 37.4694 20.9702 38.3242 21.3926L38.8371 19.024C37.9823 18.6853 37.042 18.5151 36.1887 18.5151C33.3693 18.5151 31.3177 20.0389 31.3177 22.1537C31.3177 23.7626 32.7709 24.6073 33.7967 25.1162C34.9064 25.6237 35.3338 25.9625 35.2484 26.4699C35.2484 27.231 34.3935 27.5698 33.5402 27.5698C32.5144 27.5698 31.4886 27.3161 30.5498 26.8923L30.0369 29.2623C31.0627 29.6846 32.1725 29.8548 33.1983 29.8548C36.3596 29.9384 38.3242 28.416 38.3242 26.1311C38.3242 23.2537 34.3081 23.085 34.3081 21.8164V21.8164ZM48.4913 29.7697L46.1847 18.7688H43.7073C43.1944 18.7688 42.6815 19.1076 42.5105 19.615L38.2394 29.7697H41.2298L41.8267 28.1623H45.5009L45.8428 29.7697H48.4913ZM44.1329 21.7314L44.9862 25.8774H42.5942L44.1329 21.7314Z" fill="#172B85"/>
</g>
<defs>
<filter id="filter0_d_1473_917" x="0.939074" y="0.701769" width="61.739" height="45.7814" filterUnits="userSpaceOnUse" color-interpolation-filters="sRGB">
<feFlood flood-opacity="0" result="BackgroundImageFix"/>
<feColorMatrix in="SourceAlpha" type="matrix" values="0 0 0 0 0 0 0 0 0 0 0 0 0 0 0 0 0 0 127 0" result="hardAlpha"/>
<feOffset/>
<feGaussianBlur stdDeviation="2.7414"/>
<feComposite in2="hardAlpha" operator="out"/>
<feColorMatrix type="matrix" values="0 0 0 0 0 0 0 0 0 0 0 0 0 0 0 0 0 0 0.07 0"/>
<feBlend mode="normal" in2="BackgroundImageFix" result="effect1_dropShadow_1473_917"/>
<feBlend mode="normal" in="SourceGraphic" in2="effect1_dropShadow_1473_917" result="shape"/>
</filter>
</defs>
</svg>
